<?xml version="1.0" encoding="iso-8859-1"?>
<!-- Uploaded to: SVG Repo, www.svgrepo.com, Generator: SVG Repo Mixer Tools -->
<svg fill="#000000" height="800px" width="800px" version="1.1" id="Layer_1" xmlns="http://www.w3.org/2000/svg" xmlns:xlink="http://www.w3.org/1999/xlink" 
	 viewBox="0 0 512 512" xml:space="preserve">
<g>
	<g>
		<path d="M256,0c-42.351,0-76.8,34.449-76.8,76.8c0,42.351,34.449,76.8,76.8,76.8c42.351,0,76.8-34.449,76.8-76.8
			C332.8,34.449,298.351,0,256,0z M256,128c-28.279,0-51.2-22.921-51.2-51.2s22.921-51.2,51.2-51.2c28.279,0,51.2,22.921,51.2,51.2
			S284.279,128,256,128z M332.39,174.626c-2.219-12.177-12.817-21.026-25.19-21.026H256h-51.2c-12.373,0-22.972,8.849-25.182,21.026L169.472,230.4
			h26.018l9.31-51.2h38.4v51.2h25.6v-51.2h38.4l9.31,51.2h26.018L332.39,174.626z M86.528,281.6c-42.351,0-76.8,34.449-76.8,76.8s34.449,76.8,76.8,76.8s76.8-34.449,76.8-76.8S128.879,281.6,86.528,281.6z
			 M86.528,409.6c-28.279,0-51.2-22.921-51.2-51.2s22.921-51.2,51.2-51.2s51.2,22.921,51.2,51.2S114.807,409.6,86.528,409.6z M162.918,456.226c-2.219-12.177-12.817-21.026-25.19-21.026h-51.2h-51.2c-12.373,0-22.972,8.849-25.19,21.026L0,512
			h26.018l9.31-51.2h38.4V512h25.6v-51.2h38.4l9.31,51.2h26.018L162.918,456.226z M425.472,281.6c-42.351,0-76.8,34.449-76.8,76.8s34.449,76.8,76.8,76.8s76.8-34.449,76.8-76.8
			S467.823,281.6,425.472,281.6z M425.472,409.6c-28.279,0-51.2-22.921-51.2-51.2s22.921-51.2,51.2-51.2
			c28.279,0,51.2,22.921,51.2,51.2S453.751,409.6,425.472,409.6z M501.862,456.226c-2.219-12.177-12.817-21.026-25.19-21.026h-51.2h-51.2c-12.373,0-22.972,8.849-25.19,21.026L338.944,512
			h26.018l9.31-51.2h38.4V512h25.6v-51.2h38.4l9.31,51.2H512L501.862,456.226z M328.909,372.924L268.8,338.219V268.8c0-7.074-5.726-12.8-12.8-12.8c-7.074,0-12.8,5.726-12.8,12.8v69.419l-60.109,34.705
			c-6.127,3.524-8.226,11.349-4.685,17.476c2.372,4.096,6.673,6.4,11.102,6.4c2.176,0,4.378-0.546,6.391-1.724l60.1-34.705
			l60.109,34.705c2.014,1.178,4.215,1.724,6.391,1.724c4.429,0,8.721-2.304,11.102-6.4
			C337.135,384.273,335.036,376.448,328.909,372.924z"/>
	</g>
</svg>